<svg width="256" height="106" viewBox="0 0 256 106" fill="none" xmlns="http://www.w3.org/2000/svg">
<path d="M66.3578 0H101.587L100.372 106H82.3019V19.3829L68.7874 106H32.7993L18.9811 17.2629L17.9181 106H0V0H34.6215L50.5656 101.609L66.3578 0Z" fill="#47FF45"/>
<path d="M163.365 0.151427H175.209L115.381 106H103.537L163.365 0.151427Z" fill="#47FF45"/>
<path d="M179.468 106V0H256V106H179.468ZM198.753 52.8486C198.753 83.74 206.649 104.183 218.342 104.183C230.034 104.183 237.93 83.74 237.93 52.8486C237.93 22.1086 230.034 1.66572 218.342 1.66572C206.649 1.66572 198.753 22.1086 198.753 52.8486Z" fill="#47FF45"/>
</svg>
