<svg width="1083" height="141" viewBox="0 0 1083 141" fill="none" xmlns="http://www.w3.org/2000/svg">
<path d="M87.3245 0H133.684L132.086 139.407H108.306V25.4915L90.5218 139.407H43.1627L24.9784 22.7034L23.5796 139.407H0V0H45.5606L66.5425 133.631L87.3245 0Z" fill="#47FF45"/>
<path d="M138.449 106.148V83.0466C189.205 59.9449 205.591 40.2288 207.989 0H236.364V82.8475H266.339V84.839C251.751 84.6398 238.163 91.411 236.364 103.36V116.106C241.16 140.403 264.141 137.216 271.934 137.614V139.407H172.42V137.614C180.413 137.216 203.393 140.602 207.789 115.11H207.989V106.148H138.449ZM146.242 83.0466L207.989 82.8475V22.7034C200.995 49.7881 181.412 66.9153 146.242 83.0466Z" fill="#47FF45"/>
<path d="M299.013 70.5C299.013 99.9746 317.797 119.89 350.369 119.89C363.758 119.89 382.741 116.504 384.939 81.0551V78.6653H318.996V60.7415H406.321V139.407H384.939V110.53C380.343 132.436 364.357 141 343.575 141C305.608 141 278.631 112.72 278.631 70.5C278.631 28.2797 305.608 0 346.572 0H405.721L405.521 21.5085L346.572 21.1102C317.797 21.1102 299.013 41.0254 299.013 70.5Z" fill="#47FF45"/>
<path d="M442.803 0L443.003 139.407H418.225V0H442.803Z" fill="#47FF45"/>
<path d="M472.532 70.5C472.532 99.9746 491.316 119.89 520.091 119.89C541.273 119.89 558.658 109.733 563.654 91.0127H587.033C579.64 121.682 553.662 141 520.091 141C479.127 141 452.15 112.72 452.15 70.5C452.15 28.2797 479.127 0 520.091 0C558.258 0 581.638 25.6907 581.638 62.9322H561.056C559.657 34.8517 545.869 21.1102 520.091 21.1102C491.316 21.1102 472.532 41.0254 472.532 70.5Z" fill="#47FF45"/>
<path d="M643.455 139.407V0H744.168V139.407H643.455ZM668.833 69.5042C668.833 110.131 679.224 137.017 694.611 137.017C709.997 137.017 720.388 110.131 720.388 69.5042C720.388 29.0763 709.997 2.19069 694.611 2.19069C679.224 2.19069 668.833 29.0763 668.833 69.5042Z" fill="#47FF45"/>
<path d="M817.739 0H841.918L820.137 139.407H773.577L751.796 0H775.975L796.957 133.631L817.739 0Z" fill="#47FF45"/>
<path d="M849.669 84.4407H916.411V86.4322C900.425 86.4322 875.247 86.4322 875.247 109.534C875.247 119.89 885.838 137.017 902.223 137.017C925.204 137.017 928.201 118.496 928.201 108.538C928.201 86.8305 913.813 70.8983 905.021 67.911H855.264V65.9195L893.231 25.6907H851.467V0H952.58L890.633 65.9195H937.793C944.587 73.8856 952.58 81.4534 952.58 98.5805C952.58 124.47 933.996 139.407 901.824 139.407C870.451 139.407 849.669 119.292 849.669 84.4407Z" fill="#47FF45"/>
<path d="M1003.07 0L1057.22 133.432V0H1083L1081.4 139.407H1035.44L982.487 9.16102L981.088 139.407H956.909V0H1003.07Z" fill="#47FF45"/>
</svg>
